<?xml version="1.0" encoding="UTF-8" standalone="no"?>
<!-- Created with Inkscape (http://www.inkscape.org/) -->
<svg
   xmlns:dc="http://purl.org/dc/elements/1.1/"
   xmlns:cc="http://creativecommons.org/ns#"
   xmlns:rdf="http://www.w3.org/1999/02/22-rdf-syntax-ns#"
   xmlns:svg="http://www.w3.org/2000/svg"
   xmlns="http://www.w3.org/2000/svg"
   xmlns:sodipodi="http://sodipodi.sourceforge.net/DTD/sodipodi-0.dtd"
   xmlns:inkscape="http://www.inkscape.org/namespaces/inkscape"
   id="svg2"
   sodipodi:version="0.32"
   inkscape:version="0.46"
   width="236"
   height="260"
   version="1.0"
   sodipodi:docname="IRHS logo.svg"
   inkscape:output_extension="org.inkscape.output.svg.inkscape">
  <metadata
     id="metadata7">
    <rdf:RDF>
      <cc:Work
         rdf:about="">
        <dc:format>image/svg+xml</dc:format>
        <dc:type
           rdf:resource="http://purl.org/dc/dcmitype/StillImage" />
      </cc:Work>
    </rdf:RDF>
  </metadata>
  <defs
     id="defs5">
    <inkscape:perspective
       sodipodi:type="inkscape:persp3d"
       inkscape:vp_x="0 : 526.18109 : 1"
       inkscape:vp_y="0 : 1000 : 0"
       inkscape:vp_z="744.09448 : 526.18109 : 1"
       inkscape:persp3d-origin="372.04724 : 350.78739 : 1"
       id="perspective9" />
  </defs>
  <sodipodi:namedview
     inkscape:window-height="750"
     inkscape:window-width="1280"
     inkscape:pageshadow="2"
     inkscape:pageopacity="0.0"
     guidetolerance="10.0"
     gridtolerance="10.0"
     objecttolerance="10.0"
     borderopacity="1.0"
     bordercolor="#666666"
     pagecolor="#ffffff"
     id="base"
     showgrid="false"
     showguides="true"
     inkscape:guide-bbox="true"
     inkscape:zoom="3.0724508"
     inkscape:cx="126.21467"
     inkscape:cy="68.192067"
     inkscape:window-x="-8"
     inkscape:window-y="-8"
     inkscape:current-layer="svg2">
    <sodipodi:guide
       orientation="0,1"
       position="161.78068,249.93663"
       id="guide2384" />
    <sodipodi:guide
       orientation="1,0"
       position="11.645124,70.555752"
       id="guide2386" />
    <sodipodi:guide
       orientation="0,1"
       position="114.79647,81.859089"
       id="guide2388" />
    <sodipodi:guide
       orientation="1,0"
       position="227.07992,66.788212"
       id="guide3189" />
    <sodipodi:guide
       orientation="0,1"
       position="109.94367,68.50073"
       id="guide3191" />
    <sodipodi:guide
       orientation="0,1"
       position="116.79374,74.323292"
       id="guide3193" />
    <sodipodi:guide
       orientation="0,1"
       position="160.63421,56.513102"
       id="guide3195" />
    <sodipodi:guide
       orientation="0,1"
       position="169.88181,50.69054"
       id="guide3197" />
    <sodipodi:guide
       orientation="0,1"
       position="164.05925,40.415431"
       id="guide3199" />
    <sodipodi:guide
       orientation="0,1"
       position="209.61223,20.892723"
       id="guide3201" />
    <sodipodi:guide
       orientation="0,1"
       position="153.09913,45.552985"
       id="guide3203" />
    <sodipodi:guide
       orientation="0,1"
       position="196.5971,27.742796"
       id="guide3205" />
    <sodipodi:guide
       orientation="0,1"
       position="194.88458,25.002766"
       id="guide3207" />
    <sodipodi:guide
       orientation="0,1"
       position="218.17483,9.5901022"
       id="guide3209" />
    <sodipodi:guide
       orientation="1,0"
       position="47.519068,102.84949"
       id="guide2397" />
    <sodipodi:guide
       orientation="1,0"
       position="163.38748,59.887045"
       id="guide2399" />
    <sodipodi:guide
       orientation="0,1"
       position="49.711151,54.083891"
       id="guide2401" />
  </sodipodi:namedview>
  <path
     style="opacity:1;fill:#74748d;fill-opacity:1;fill-rule:nonzero;stroke:none;stroke-width:17;stroke-linecap:round;stroke-linejoin:miter;stroke-miterlimit:4;stroke-dasharray:none;stroke-dashoffset:0;stroke-opacity:1"
     d="M 68.296636,178.14091 L 110.43711,178.14091"
     id="path2400" />
  <path
     style="fill:#331a5a;fill-rule:evenodd;stroke:#ffffff;stroke-width:1.50000000000000000;stroke-linecap:butt;stroke-linejoin:miter;stroke-opacity:1;fill-opacity:1;opacity:1;stroke-miterlimit:4;stroke-dasharray:none"
     d="M 70.03125,10.0625 L 70.03125,17 L 67.8125,19.40625 C 67.812503,19.40625 71.568732,19.89748 73.28125,21.78125 C 74.993765,23.665019 75.6875,25.03125 75.6875,25.03125 C 75.687501,25.03125 70.713765,26.238738 69.34375,27.4375 C 67.973738,28.636262 66.78125,31.71875 66.78125,31.71875 C 66.781246,31.71875 69.19747,33.090011 71.9375,32.0625 C 74.67753,31.03499 77.058715,30.173745 80.3125,30.6875 C 83.566283,31.201255 95.71875,35.5 95.71875,35.5 C 95.718753,35.5 84.092503,34.118722 83.75,36.6875 C 83.407497,39.256279 81.53125,34.8125 81.53125,34.8125 L 64.0625,35.15625 L 64.40625,38.90625 L 74.65625,45.75 L 70.71875,49.53125 L 75,56.5625 L 80.5,56.21875 L 84.4375,60.15625 L 93.34375,60.5 C 93.34375,60.500001 100.0013,64.596242 96.0625,65.28125 C 92.123709,65.966258 88.375,62.03125 88.375,62.03125 C 88.374998,62.03125 86.150018,66.136263 84.4375,64.9375 C 82.724985,63.73874 81.34375,59.96875 81.34375,59.96875 C 81.343747,59.968751 75.512509,60.327502 74.65625,60.15625 C 73.799993,59.984998 70.21875,58.4375 70.21875,58.4375 C 70.218749,58.437498 62.508724,60.328703 64.90625,64.78125 C 67.303775,69.233798 72.78125,67.6875 72.78125,67.6875 C 72.781248,67.687504 74.65625,66.836226 74.65625,69.0625 C 74.656252,71.288775 71.0625,71.96875 71.0625,71.96875 C 71.062503,71.968754 69.706241,73.844996 70.5625,74.1875 C 71.418755,74.530001 79.8125,74.1875 79.8125,74.1875 C 79.812499,74.187498 83.22752,78.642494 81.34375,79.15625 C 79.459977,79.670005 69.689993,78.293713 70.375,81.71875 C 71.060008,85.143784 79.125,83.28125 79.125,83.28125 C 79.125003,83.281246 80.84375,83.274412 80.84375,85.65625 C 80.843748,88.038088 74.84375,93.875 74.84375,93.875 C 74.843747,93.875003 74.321224,96.295005 76.71875,95.78125 C 79.116275,95.267493 80.64748,92.347489 82.53125,93.375 C 84.415019,94.402514 83.754986,98.6875 85.125,98.6875 C 86.495012,98.687502 90.25,104.5 90.25,104.5 C 90.250002,104.5 97.941239,102.54969 98.96875,104.5 C 99.996261,106.45032 103.77438,109.21686 104.03125,110.84375 C 104.28813,112.47064 100,114 100,114 C 100,114 107.03753,119.07312 104.46875,119.84375 C 101.89998,120.61438 97.441885,119.56314 96.5,117.59375 C 95.558115,115.62435 94.708779,110.40376 91.96875,109.71875 C 89.228724,109.03375 86.5625,112.71875 86.5625,112.71875 L 83.8125,110.0625 L 86.0625,104.25 C 86.062503,104.25 85.875646,101.9375 83.90625,101.9375 C 81.936857,101.9375 80.75,103.0625 80.75,103.0625 L 65.84375,93.71875 L 67.65625,100.125 L 71.65625,103.71875 C 71.656247,103.71875 68.424991,106.81873 69.28125,108.53125 C 70.13751,110.24377 74.241876,109.80248 74.15625,111.34375 C 74.070625,112.88501 70.969997,112.45185 71.3125,114.25 C 71.655004,116.04814 79.383124,118.20624 79.46875,119.0625 C 79.554377,119.91876 74.570624,119.83747 74.65625,122.40625 C 74.741878,124.97503 76.721243,125.90625 77.40625,125.90625 C 78.091259,125.90625 84.674391,125.5806 83.21875,128.40625 C 81.763111,131.23191 77.581241,129.85123 78.4375,131.90625 C 79.293761,133.96128 85.208133,135.7506 84.4375,138.0625 C 83.66687,140.3744 79.020587,143.7356 82.53125,146.21875 C 86.041911,148.7019 89.0625,146.46875 89.0625,146.46875 C 89.0625,146.46875 91.349982,144.15062 93.0625,144.75 C 94.775014,145.34939 102.33314,148.01561 101.5625,150.15625 C 100.79187,152.2969 99.143737,152.44124 100,153.46875 C 100.85626,154.49628 103.34191,157.59251 100.6875,157.25 C 98.033102,156.9075 95.90625,156.05502 95.90625,154 C 95.906248,151.94498 94.960025,149.28125 92.5625,149.28125 C 90.164971,149.28125 87.603121,150.31186 88.03125,152.28125 C 88.45938,154.25066 92.228721,156.39061 94.96875,158.53125 C 97.708779,160.6719 98.65625,163.15625 98.65625,163.15625 L 90.6875,167.78125 C 90.687501,167.78126 88.628139,162.05687 87.34375,162.65625 C 86.05936,163.25563 84.09375,164.78125 84.09375,164.78125 L 78.1875,161.875 L 76.5625,158.03125 C 76.562498,158.03124 85.02631,155.78628 79.375,152.875 C 73.72369,149.96373 73.625,155.875 73.625,155.875 C 73.625002,155.875 73.310653,149.47 70.65625,149.8125 C 68.001845,150.155 67.375,151.15625 67.375,151.15625 L 67.125,178.15625 L 110.4375,178.15625 L 110.4375,106.46875 L 141.90625,178.15625 L 189.375,178.15625 L 150.15625,88.0625 C 150.15625,88.062502 172.4375,74.015554 172.4375,53.1875 C 172.4375,32.359446 154.01555,10.0625 132.21875,10.0625 C 110.42194,10.0625 70.03125,10.0625 70.03125,10.0625 z M 110.4375,34.625 C 110.45782,34.796252 132.21874,37.387527 132.21875,53.1875 C 132.21875,68.987473 110.4375,71.093749 110.4375,71.09375 L 110.4375,34.625 z"
     id="path2408"
     sodipodi:nodetypes="cccscscsscscccccccccscscscscscscsscscssscsscssscccsccccsssssssssscssssssssccscccscscccccccssccscc" />
  <path
     style="opacity:1;fill:#331a5a;fill-opacity:1;fill-rule:nonzero;stroke:#ffffff;stroke-width:1.5;stroke-linecap:round;stroke-linejoin:miter;stroke-miterlimit:4;stroke-dasharray:none;stroke-dashoffset:0;stroke-opacity:1"
     d="M 11.645124,219.58457 C 11.645124,219.58457 21.488791,214.44701 47.519068,214.44701 C 73.549345,214.44701 135.98586,232.2572 163.38748,232.2572 C 190.7891,232.2572 227.07992,219.58457 227.07992,219.58457 L 227.07992,239.10728 C 227.07992,239.10728 200.19985,250.4099 163.38748,250.4099 C 126.57511,250.4099 69.265383,234.99723 46.742024,234.99723 C 24.218665,234.99723 11.645124,239.10728 11.645124,239.10728 L 11.645124,219.58457 z"
     id="path3211"
     sodipodi:nodetypes="cszccsscc" />
  <path
     style="opacity:1;fill:#1b6f4d;fill-opacity:1;fill-rule:nonzero;stroke:#ffffff;stroke-width:1.5;stroke-linecap:round;stroke-linejoin:miter;stroke-miterlimit:4;stroke-dasharray:none;stroke-dashoffset:0;stroke-opacity:1"
     d="M 11.645124,10.06337 L 11.645124,178.14091 L 58.259682,178.14091 C 58.259682,178.14091 57.881272,167.59709 56.212727,166.73405 C 54.544181,165.87101 51.034482,167.13681 51.034482,167.13681 C 51.034482,167.13681 48.330287,163.22435 46.546669,163.16682 C 44.763051,163.10928 40.447847,171.22187 37.801189,171.16433 C 35.15453,171.10679 33.25584,169.72593 33.25584,169.72593 C 33.25584,169.72593 35.614819,168.17245 34.57917,167.02173 C 33.543521,165.87101 28.940636,165.92855 29.343389,163.4545 C 29.746141,160.98045 30.666718,159.77219 31.35715,159.71465 C 32.047583,159.65712 36.76554,161.3832 37.571045,158.96669 C 38.376549,156.55017 34.406561,155.51452 35.614819,154.88163 C 36.823076,154.24873 39.642343,155.74467 40.390311,155.22684 C 41.13828,154.70902 41.42596,151.54453 42.404073,151.25685 C 43.382186,150.96917 46.661741,153.21308 48.560431,153.04047 C 50.459121,152.86786 51.379698,150.22121 52.415347,150.27874 C 53.450996,150.33628 55.522294,150.56642 55.522294,149.87599 C 55.522294,149.18556 54.314037,147.11426 55.234614,146.30875 C 56.155191,145.50325 59.607354,143.43195 58.05388,141.70587 C 56.500407,139.97979 50.286513,142.51137 49.538544,142.45384 C 48.790575,142.3963 45.856237,141.70587 44.475371,141.70587 C 43.094506,141.70587 40.965672,148.95541 34.694242,148.20744 C 28.422812,147.45947 32.622944,141.93601 32.622944,141.93601 C 32.622944,141.93601 34.57917,140.61268 32.96816,139.11675 C 31.35715,137.62081 27.789915,136.58516 27.789915,135.77966 C 27.789915,134.97415 30.49411,133.76589 30.091357,132.55764 C 29.688605,131.34938 23.992535,128.93286 24.682968,127.26432 C 25.373401,125.59577 40.677992,123.29433 42.346537,121.79839 C 44.015083,120.30246 43.554794,118.97913 44.820588,118.80652 C 46.086381,118.63391 56.557943,119.03666 57.19084,118.11609 C 57.823736,117.19551 54.831861,114.54885 55.062006,112.99538 C 55.29215,111.4419 59.607354,111.90219 58.341561,109.48568 C 57.075767,107.06916 55.752438,107.41438 54.716789,107.81713 C 53.68114,108.21988 52.530419,110.11857 51.609842,109.77336 C 50.689265,109.42814 50.228977,103.32932 48.963184,103.09918 C 47.69739,102.86903 41.253352,113.80088 40.160167,114.08856 C 39.066982,114.37624 31.127006,118.63391 30.206429,118.51884 C 29.285852,118.40377 27.099482,117.59826 27.214554,116.10232 C 27.329627,114.60639 27.157018,108.33496 28.192667,108.27742 C 29.228316,108.21988 33.313376,107.7596 32.853088,106.4938 C 32.392799,105.22801 33.083232,102.86903 32.507872,102.1786 C 31.932511,101.48817 28.825564,99.474404 30.148893,98.323683 C 31.472223,97.172962 44.647979,95.792096 46.604205,94.583839 C 48.560431,93.375582 58.111416,83.1917 58.111416,83.1917 C 58.111416,83.1917 57.996344,71.109128 55.752438,71.109128 C 53.508532,71.109128 47.754926,77.380559 46.719277,76.517518 C 45.683628,75.654477 45.338412,71.742025 44.187691,70.706376 C 43.03697,69.670727 39.930023,66.621316 40.8506,64.837698 C 41.771177,63.054081 45.050732,58.39366 47.179566,58.738876 C 49.3084,59.084093 52.415347,60.752638 54.026356,60.177278 C 55.637366,59.601917 58.571705,57.703227 58.168953,56.20729 C 57.7662,54.711353 51.724914,52.927735 52.012595,51.892086 C 52.300275,50.856437 55.119542,47.231665 54.889397,46.253552 C 54.659253,45.275439 48.100143,40.384875 45.741164,40.442411 C 43.382186,40.499947 39.469734,43.66443 38.203941,43.319213 C 36.938148,42.973997 34.751778,42.743853 35.557283,40.499947 C 36.362787,38.256041 42.058857,35.724454 43.957547,35.954598 C 45.856237,36.184743 51.264626,36.529959 52.185203,34.573733 C 53.10578,32.617507 50.459121,28.820127 50.976946,27.669406 C 51.49477,26.518685 53.853748,19.556822 54.601717,19.15407 C 55.349686,18.751318 58.168953,19.038998 58.284025,17.485524 C 58.399097,15.932051 58.341561,10.06337 58.341561,10.06337 L 11.645124,10.06337 z"
     id="path3223" />
  <path
     style="opacity:1;fill:#1b6f4d;fill-opacity:1;fill-rule:nonzero;stroke:#ffffff;stroke-width:1.5;stroke-linecap:round;stroke-linejoin:miter;stroke-miterlimit:4;stroke-dasharray:none;stroke-dashoffset:0;stroke-opacity:1"
     d="M 11.645124,191.49927 C 11.645124,191.49927 25.87511,185.67671 47.51907,185.67671 C 69.16303,185.67671 138.56753,203.4869 163.17225,203.4869 C 187.77697,203.4869 227.07992,191.49927 227.07992,191.49927 L 227.07992,211.6109 C 227.07992,211.6109 196.52825,222.3463 163.38748,221.88601 C 130.24671,221.42572 72.834933,205.55819 47.519068,205.78834 C 22.203204,206.01848 11.645124,211.6109 11.645124,211.6109 L 11.645124,191.49927 z"
     id="path3225"
     sodipodi:nodetypes="cszccsscc" />
</svg>
